<?xml version="1.0" encoding="UTF-8"?>
<svg xmlns="http://www.w3.org/2000/svg" xmlns:xlink="http://www.w3.org/1999/xlink">
  <defs>
    <!-- 前端開發圖標 -->
    <symbol id="code-front" viewBox="0 0 24 24">
      <path fill="currentColor" d="M8.293 6.293a1 1 0 0 1 1.414 0l5 5a1 1 0 0 1 0 1.414l-5 5a1 1 0 0 1-1.414-1.414L12.586 12 8.293 7.707a1 1 0 0 1 0-1.414z"/>
      <path fill="currentColor" d="M15.707 6.293a1 1 0 0 0-1.414 0l-5 5a1 1 0 0 0 0 1.414l5 5a1 1 0 0 0 1.414-1.414L11.414 12l4.293-4.293a1 1 0 0 0 0-1.414z"/>
    </symbol>
    
    <!-- 動畫圖標 -->
    <symbol id="animation" viewBox="0 0 24 24">
      <circle cx="12" cy="12" r="10" stroke="currentColor" fill="none" stroke-width="2"/>
      <path fill="currentColor" d="M12 6v6l4 4" stroke="currentColor" stroke-width="2" stroke-linecap="round"/>
    </symbol>
    
    <!-- UI/UX圖標 -->
    <symbol id="ux" viewBox="0 0 24 24">
      <rect x="3" y="3" width="18" height="18" rx="2" stroke="currentColor" fill="none" stroke-width="2"/>
      <line x1="3" y1="9" x2="21" y2="9" stroke="currentColor" stroke-width="2"/>
      <circle cx="8" cy="6" r="1" fill="currentColor"/>
      <circle cx="12" cy="6" r="1" fill="currentColor"/>
      <circle cx="16" cy="6" r="1" fill="currentColor"/>
      <path fill="currentColor" d="M6 12h12M6 16h8" stroke="currentColor" stroke-width="2" stroke-linecap="round"/>
    </symbol>
    
    <!-- 效能圖標 -->
    <symbol id="performance" viewBox="0 0 24 24">
      <path fill="currentColor" d="M12 4v4m0 12v-4m-8-4h4m12 0h-4M6.34 17.66l2.83-2.83m6.36-6.36l2.83-2.83M6.34 6.34l2.83 2.83m6.36 6.36l2.83 2.83" stroke="currentColor" stroke-width="2" stroke-linecap="round"/>
      <circle cx="12" cy="12" r="4" stroke="currentColor" fill="none" stroke-width="2"/>
    </symbol>
  </defs>
</svg>